<svg xmlns="http://www.w3.org/2000/svg" viewBox="0 0 109.6 17.28"><defs><style>.cls-1{fill:#fff;fill-rule:evenodd;}</style></defs><title>Ресурс 2</title><g id="Слой_2" data-name="Слой 2"><g id="top_menu" data-name="top menu"><g id="ТЕХНОМАРТ"><path class="cls-1" d="M0,1.92H3.84V17H6V1.92H9.84V.24H0ZM11.88,17H20V15.36H14V9.12h5.28V7.44H14V1.92h6V.24H11.88ZM31.74.24H29.58L26.94,7,24.3.24H22.14L25.38,8.4,21.78,17h2.16l3-7.2,3,7.2H32.1L28.5,8.4Zm9.65,7.44h-5V.24H34.19V17h2.16V9.36h5V17h2.16V.24H41.39ZM55.15,1.8A3.75,3.75,0,0,0,53.53.41a6,6,0,0,0-4.35,0A3.75,3.75,0,0,0,47.56,1.8a7.33,7.33,0,0,0-1,2.65,21.15,21.15,0,0,0-.35,4.19,21.15,21.15,0,0,0,.35,4.19,7.33,7.33,0,0,0,1,2.65,3.75,3.75,0,0,0,1.62,1.39,6,6,0,0,0,4.35,0,3.75,3.75,0,0,0,1.62-1.39,7.72,7.72,0,0,0,1-2.65,21.24,21.24,0,0,0,.34-4.19,21.24,21.24,0,0,0-.34-4.19A7.72,7.72,0,0,0,55.15,1.8Zm-1,10.39a8.48,8.48,0,0,1-.66,2.21,2.56,2.56,0,0,1-1,1.13,2.24,2.24,0,0,1-1.13.31,2.2,2.2,0,0,1-1.12-.31,2.56,2.56,0,0,1-1-1.13,7.77,7.77,0,0,1-.66-2.21,20.24,20.24,0,0,1-.26-3.55,20.24,20.24,0,0,1,.26-3.55,7.77,7.77,0,0,1,.66-2.21,2.56,2.56,0,0,1,1-1.13,2.2,2.2,0,0,1,1.12-.31,2.24,2.24,0,0,1,1.13.31,2.56,2.56,0,0,1,1,1.13,8.48,8.48,0,0,1,.66,2.21,20.37,20.37,0,0,1,.25,3.55A20.37,20.37,0,0,1,54.1,12.19ZM70.23.24,66.31,11.76h-.09L62.31.24H59.67l-1,16.8h2.16l.72-12.48h.12l3.48,10.32h2.16L70.83,4.56H71L71.67,17h2.16l-1-16.8Zm9.65,0L75.8,17H78L79,12.72h4.8L84.92,17h2.16L83,.24ZM79.4,11l2-8.4h.09l2,8.4ZM97.14,1.3a3.4,3.4,0,0,0-1.63-1A8.68,8.68,0,0,0,93.06,0a17.73,17.73,0,0,0-2,.11,10.71,10.71,0,0,0-1.84.37V17h2.16V11.88c.31.06.69.12,1.16.17a11.57,11.57,0,0,0,1.24.07,6.12,6.12,0,0,0,2-.3,3.13,3.13,0,0,0,1.42-1,4.89,4.89,0,0,0,.84-1.88A13.4,13.4,0,0,0,98.34,6a12.17,12.17,0,0,0-.28-2.86A4.31,4.31,0,0,0,97.14,1.3ZM96,8.16a3.33,3.33,0,0,1-.56,1.37,2.14,2.14,0,0,1-1,.71,4.48,4.48,0,0,1-1.41.2H91.38V1.56h1.68a4.48,4.48,0,0,1,1.41.2,2.14,2.14,0,0,1,1,.71A3.33,3.33,0,0,1,96,3.84,10.9,10.9,0,0,1,96.18,6,10.9,10.9,0,0,1,96,8.16ZM99.76.24V1.92h3.84V17h2.16V1.92h3.84V.24Z"/></g></g></g></svg>